<?xml version="1.0" encoding="UTF-8"?>
<svg width="512" height="512" viewBox="0 0 512 512" xmlns="http://www.w3.org/2000/svg">
  <rect width="512" height="512" rx="80" fill="#0E0B0A"/>
  <g transform="translate(95.6 130.0) scale(1.15)">
    <path fill="#FFFFFF" d="M246.24,24.32c0,0-5.75,13.18-25.32,15.93c-19.42,2.73-35.39-7.4-67.62-2.87c-4.94,0.69-9.49,1.82-13.67,3.28
    c-4.18-0.29-8.74-0.14-13.67,0.56c-32.23,4.53-48.2,19.15-67.62,21.88c-19.57,2.75-25.32-8.81-25.32-8.81
    c-2.01,2.01-3.02,5.17-3.02,8.77c0,9.78,8.06,19.59,27.19,16.9c21.29-2.99,32.08-9.69,46.47-14.88v45.89
    c-7.05-5.77-15.25-8.22-22.44-7.2c-8.92,1.25-15.25,6.46-15.25,13.94c0,4.89,2.88,10.82,10.36,9.77c5.75-0.81,8.92-4.99,9.78-8.71
    c6.76-0.95,17.55,3.29,17.55,25.44v26.62c0,8.49-2.45,13.87-5.75,18.36c13.67-1.92,19.42-8.34,19.42-8.34s5.61,4.82,19.28,2.9
    c-3.31-3.56-5.75-8.26-5.75-16.74v-39.28c0-8.78,5.61-16.04,5.61-16.04s-5.61-5.54-5.61-14.46V59.25c3.24-0.01,6.18,0.47,8.78,1.34
    c2.6-1.61,5.54-2.92,8.78-3.81v37.98c0,8.92-5.61,16.04-5.61,16.04s5.61,5.69,5.61,14.46v39.28c0,8.49-2.45,13.87-5.75,18.36
    c13.67-1.92,19.28-8.32,19.28-8.32s5.75,4.8,19.42,2.88c-3.31-3.56-5.75-8.26-5.75-16.74V134.1c0-22.16,10.79-29.43,17.55-30.38
    c0.86,3.48,4.03,6.77,9.78,5.96c7.48-1.05,10.36-7.79,10.36-12.68c0-7.48-6.33-10.91-15.25-9.65c-7.19,1.01-15.39,5.76-22.44,13.51
    V54.97c14.39,1.14,25.18,4.81,46.47,1.81c19.13-2.69,27.19-14.76,27.19-24.54C249.26,28.65,248.25,25.77,246.24,24.32z"/>
  </g>
</svg>
