<?xml version="1.0" encoding="UTF-8"?>
<svg id="FF_Logo" xmlns="http://www.w3.org/2000/svg" viewBox="0 0 864 476.1">
  <!-- Generator: Adobe Illustrator 30.2.1, SVG Export Plug-In . SVG Version: 2.1.1 Build 1)  -->
  <path d="M219.63,151.48c-1.57,2.69-2.36,4.03-3.93,6.72,1.57-.12,2.36-.18,3.93-.29,7.78-.58,11.67-.85,19.46-1.38,1.5-.1,2.25-.15,3.76-.25-1.5-2.47-2.25-3.71-3.76-6.18v-34.05c1.5-1.36,2.25-2.04,3.76-3.4,4.58-.3,6.87-.45,11.44-.73,3.28,1.05,4.92,1.58,8.2,2.65v-21.74c-3.28,1.4-4.92,2.1-8.2,3.51-4.58.28-6.87.43-11.44.73-1.5-1.1-2.25-1.66-3.76-2.76v-24.89c3.96-.27,5.94-.4,9.91-.65,1.5,1.11,2.25,1.66,3.76,2.77v7.79c3.21-1.4,4.82-2.1,8.03-3.5,4.58-.27,6.87-.41,11.45-.66v-16.96c1.5-2.65,2.26-3.98,3.76-6.63-1.5.08-2.26.12-3.76.21-7.79.43-11.69.67-19.48,1.15-5.47.34-8.2.52-13.66.89-7.79.52-11.68.8-19.46,1.38-1.57.12-2.36.18-3.93.29,1.57,2.45,2.36,3.68,3.93,6.13v41.84c-1.5,1.32-2.25,1.97-3.75,3.29,1.5,1.14,2.25,1.72,3.75,2.86v41.86ZM255.15,99.43c1.37-.58,2.05-.86,3.42-1.44v2.6c-.34.18-.51.28-.85.46-5.6.34-8.41.52-14.01.89-.89-.65-1.33-.98-2.22-1.63,5.46-.36,8.2-.54,13.66-.88h0ZM259.08,73.07c-1.02.44-1.54.67-2.56,1.11v-4.1c-1.5-1.17-2.26-1.75-3.76-2.91.07,0,.1,0,.17-.01,2.46,1.76,3.69,2.64,6.15,4.41v1.5ZM221.85,58.06c15.99-1.14,31.98-2.18,47.99-3.12-.41.73-.62,1.1-1.03,1.84-14.87.85-29.73,1.81-44.58,2.89.68,1.04,1.02,1.57,1.71,2.61v43.76c-.89.77-1.33,1.16-2.22,1.94.89.65,1.33.97,2.22,1.62v43.76c-.27.4-.41.6-.68,1.01-1.37.1-2.05.15-3.41.25.61-1.08.92-1.63,1.54-2.71v-43.9c-.82-.65-1.23-.98-2.05-1.63.82-.72,1.23-1.08,2.05-1.79v-43.89c-.61-1.05-.92-1.57-1.54-2.62v-.02Z"/>
  <path d="M287.1,123.61v23.66c-1.57,2.65-2.36,3.98-3.93,6.63,1.57-.08,2.36-.12,3.93-.2,7.8-.39,11.7-.58,19.49-.92,1.51-.07,2.26-.1,3.76-.16-1.51-2.51-2.26-3.76-3.76-6.26v-32.68c6.64-3.35,9.95-5.02,16.59-8.34v40.34c-1.57,2.63-2.36,3.95-3.93,6.58,1.57-.06,2.36-.09,3.93-.15,7.8-.3,11.7-.43,19.51-.67,1.57-.05,2.36-.07,3.94-.12-1.57-2.52-2.36-3.79-3.94-6.31v-41.84c1.51-1.31,2.26-1.96,3.76-3.26-1.51-1.16-2.26-1.74-3.76-2.89v-41.84c1.57-2.62,2.36-3.93,3.94-6.55-1.57.05-2.36.07-3.94.12-7.8.24-11.7.38-19.51.67-6.64.25-9.96.39-16.59.68-7.8.34-11.7.53-19.49.92-1.57.08-2.36.12-3.93.2,1.57,2.49,2.36,3.73,3.93,6.23v41.84c-1.5,1.28-2.26,1.92-3.76,3.2,1.51,1.18,2.26,1.77,3.76,2.95v18.19-.02ZM329.52,147.76c-.21.39-.31.59-.51.98-1.44.05-2.16.08-3.59.13.68-1.06,1.03-1.6,1.71-2.66v-43.62c.96-.47,1.44-.71,2.4-1.18v46.36h0ZM329.52,91.83c-9.79,4.84-14.68,7.27-24.46,12.19v-2.87c8.82-4.44,13.24-6.64,22.07-11.01v-23.52c-1.57-1.2-2.36-1.8-3.93-3,.14,0,.21,0,.34,0,2.4,1.82,3.59,2.74,5.99,4.57v23.66h-.01ZM306.6,96.85v-28.17c1.51-1.27,2.26-1.9,3.76-3.17,3.63-.15,5.44-.23,9.07-.37,1.51,1.14,2.26,1.72,3.76,2.86v20.51c-6.64,3.31-9.96,4.98-16.59,8.34h0ZM289.33,53.9c17.04-.84,34.09-1.56,51.14-2.09-.41.72-.62,1.09-1.03,1.81-15.92.55-31.82,1.2-47.72,1.94.68,1.06,1.03,1.59,1.71,2.65v43.76c-.89.75-1.33,1.13-2.22,1.89.89.67,1.33,1,2.22,1.67v43.76c-.27.4-.41.59-.68.99-1.37.07-2.05.1-3.42.17.62-1.07.92-1.6,1.54-2.67v-43.89c-.82-.67-1.23-1.01-2.05-1.67.82-.7,1.23-1.05,2.05-1.74v-43.89c-.62-1.06-.92-1.6-1.54-2.66v-.03Z"/>
  <path d="M351.59,151.16c1.57-.04,2.36-.07,3.94-.11,7.8-.21,11.71-.3,19.51-.46,1.51-.03,2.26-.04,3.77-.07-1.51-2.49-2.26-3.73-3.77-6.22.17-9.39.34-18.79.51-28.18,3.08,11.43,6.16,22.86,9.24,34.29,7.81-.13,11.71-.18,19.52-.26,3.14-11.51,6.28-23.02,9.42-34.54.11,9.39.23,18.78.34,28.17-1.51,2.53-2.26,3.79-3.77,6.32,1.57,0,2.36-.02,3.94-.03,7.81-.05,11.71-.06,19.52-.06h3.77c-1.58-2.57-2.36-3.86-3.94-6.43-.17-14.18-.34-28.35-.51-42.53,1.17-.98,1.75-1.48,2.91-2.46-1.23-.99-1.85-1.48-3.08-2.46-.17-14.18-.34-28.35-.51-42.53,1.51-2.52,2.26-3.77,3.77-6.29h-3.94c-7.81,0-11.71,0-19.52.07-1.57,0-2.36.02-3.94.03,1.1,1.8,1.64,2.69,2.74,4.49-5.65,20.8-11.3,41.59-16.95,62.39-5.65-20.65-11.3-41.3-16.95-61.94,1.09-1.83,1.64-2.74,2.74-4.56-1.57.03-2.36.04-3.94.07-7.81.15-11.71.24-19.51.45-1.51.04-2.26.06-3.77.1,1.51,2.47,2.26,3.71,3.77,6.19-.23,14.18-.46,28.36-.68,42.54-1.23,1.02-1.85,1.53-3.08,2.54,1.23.95,1.85,1.43,3.08,2.38-.23,14.18-.46,28.36-.69,42.54-1.57,2.61-2.36,3.92-3.94,6.54v.02ZM419.89,146.9c-1.37,0-2.06,0-3.43.02.62-.99.93-1.48,1.54-2.47-.11-9.12-.23-18.23-.34-27.35.96.05,1.44.07,2.4.12.11,9.62.23,19.23.34,28.85-.21.33-.31.49-.51.82h0ZM415.61,51.48c-.27-.38-.41-.57-.69-.95,6.03-.04,9.04-.05,15.07-.05-.41.66-.62.99-1.03,1.64-4.59,0-6.88,0-11.47.04.21.38.31.57.51.95-6.97,25.86-13.93,51.72-20.89,77.58-.62-2.18-.92-3.27-1.54-5.45,6.67-24.59,13.35-49.17,20.03-73.75h.01ZM381.71,116.97c2.74,10.07,5.48,20.15,8.22,30.22-.75,0-1.13.02-1.88.03-2.74-9.98-5.48-19.96-8.22-29.94.75-.12,1.13-.18,1.88-.31ZM358.61,99.69c.62-.51.92-.76,1.54-1.27.23-14.87.46-29.73.69-44.6-.62-.97-.92-1.45-1.54-2.42,5.96-.15,8.93-.22,14.89-.34-.21.39-.31.58-.51.97.07.27.1.41.17.68-4.86.1-7.29.15-12.15.27.62,1.02.92,1.54,1.54,2.56-.23,14.86-.46,29.73-.68,44.59-.55.45-.82.68-1.37,1.13.55.42.82.64,1.37,1.06-.23,14.86-.46,29.73-.69,44.59-.2.33-.31.5-.51.83-1.44.04-2.16.05-3.59.09.68-1.06,1.03-1.59,1.71-2.64.23-14.82.46-29.64.68-44.46-.62-.42-.92-.63-1.54-1.05h-.01Z"/>
  <path d="M446.09,134.46v8.89c3.42,2.7,5.14,4.05,8.56,6.75,4.38.03,6.57.05,10.96.1,8.83.1,13.25.17,22.08.34,4.38.08,6.57.13,10.96.23,3.42-2.6,5.13-3.9,8.56-6.49v-41.57c1.51-1.22,2.26-1.83,3.76-3.04-1.51-1.24-2.26-1.87-3.76-3.11v-41.57c-3.42-2.77-5.13-4.15-8.56-6.91-4.38-.1-6.57-.15-10.96-.23-8.83-.17-13.25-.24-22.08-.34-4.38-.05-6.57-.07-10.96-.11-3.42,2.65-5.14,3.98-8.56,6.65v41.57c-1.51,1.2-2.26,1.8-3.77,2.99,1.51,1.26,2.26,1.9,3.77,3.16v32.68h0ZM465.61,95.79v-29.67c1.51-1.19,2.26-1.78,3.77-2.96,5.82.07,8.73.12,14.55.22,1.51,1.23,2.26,1.85,3.77,3.08v29.67c-1.51,1.17-2.26,1.76-3.77,2.94,1.51,1.28,2.26,1.93,3.77,3.21v29.67c-1.51,1.17-2.26,1.76-3.77,2.94-5.82-.1-8.73-.15-14.55-.22-1.51-1.22-2.26-1.83-3.77-3.05v-29.67c1.51-1.24,2.26-1.86,3.77-3.1-1.51-1.22-2.26-1.83-3.77-3.05h0ZM494.02,99.26c-.89.69-1.34,1.04-2.23,1.73.89.73,1.34,1.09,2.23,1.82v32.27c-2.46,1.86-3.7,2.79-6.16,4.66-7.05-.14-10.58-.19-17.63-.28-.82-.67-1.23-1-2.05-1.67,6.92.09,10.37.14,17.29.27,2.4-1.93,3.6-2.89,5.99-4.81v-32.27c-.89-.67-1.34-1.01-2.23-1.69.89-.69,1.34-1.04,2.23-1.73v-32.27c-1.58-1.29-2.36-1.93-3.94-3.22h.34c2.46,1.96,3.7,2.94,6.16,4.91v32.27h0ZM450.03,97.02v-41.57c2.46-1.95,3.7-2.93,6.16-4.88,13.64.11,27.28.32,40.92.63.82.67,1.23,1.01,2.05,1.69-13.52-.31-27.04-.53-40.57-.65-2.47,1.95-3.7,2.92-6.16,4.87v41.57c-.89.7-1.34,1.06-2.23,1.76.89.72,1.34,1.07,2.23,1.79v41.57c1.64,1.27,2.46,1.9,4.11,3.18h-.34c-2.46-1.99-3.7-2.98-6.16-4.97v-41.57c-.89-.66-1.34-.99-2.23-1.65.89-.71,1.34-1.06,2.23-1.77h0Z"/>
  <path d="M536.81,151.91c6.64.24,9.96.37,16.59.65,4.45.19,6.67.28,11.12.49,3.35-2.53,5.03-3.79,8.38-6.3v-42.8c-7.25-4.13-10.87-6.18-18.13-10.26-.34-1.55-.51-2.32-.86-3.86-1.98.24-2.98.37-4.96.62-4.86-2.77-7.29-4.15-12.15-6.89v-15.73c1.51-1.15,2.26-1.72,3.76-2.87,3.63.14,5.44.21,9.07.35,1.51,1.26,2.26,1.9,3.76,3.16v11.35c3.22-1.07,4.82-1.6,8.04-2.66,4.58.21,6.87.31,11.46.54v-20.51c1.57-2.49,2.36-3.74,3.93-6.23-1.57-.08-2.36-.12-3.93-.19-7.8-.38-11.7-.56-19.5-.88-6.64-.28-9.96-.41-16.59-.65-4.45-.16-6.67-.24-11.12-.38-3.35,2.57-5.03,3.86-8.38,6.44v36.78c8.35,4.62,12.53,6.95,20.87,11.63.34,1.6.51,2.4.86,4,2.05-.25,3.08-.38,5.13-.63,3.69,2.11,5.54,3.17,9.24,5.29v21.61c-1.5,1.14-2.26,1.71-3.76,2.85-3.63-.15-5.44-.22-9.07-.35-1.51-1.26-2.26-1.89-3.76-3.15v-11.49c-3.28,1.14-4.93,1.71-8.21,2.86-4.52-.15-6.78-.22-11.29-.35v20.51c-1.57,2.52-2.36,3.79-3.94,6.31,1.57.04,2.36.07,3.94.11,7.8.23,11.7.36,19.51.64h0ZM559.73,74.34c-.96.34-1.44.51-2.4.85v-7.79c-1.57-1.33-2.36-1.99-3.93-3.31.14,0,.21,0,.34.01,2.39,2.01,3.59,3.02,5.99,5.04v5.2ZM523.63,58.47v33.37c-1.03-.52-1.54-.79-2.57-1.31v-33.78c2.53-1.89,3.8-2.83,6.33-4.72,14.43.47,28.86,1.06,43.28,1.75-.41.64-.62.95-1.03,1.59-13.28-.63-26.56-1.17-39.86-1.62-2.46,1.89-3.7,2.83-6.16,4.72h0ZM544.16,103.91c-.82.08-1.23.12-2.05.19-.14-.66-.2-.99-.34-1.65.96.53,1.44.79,2.4,1.32v.14h-.01ZM551.18,140.02c2.46-1.87,3.69-2.8,6.16-4.66v-24.07c.96.53,1.44.8,2.4,1.34v24.61c-2.39,1.81-3.59,2.71-5.99,4.53-4.93-.21-7.39-.31-12.32-.49-.89-.69-1.33-1.03-2.22-1.72,4.79.18,7.19.27,11.97.47h0ZM521.06,145.64v-18.05c3.35.1,5.03.16,8.38.27,1.37-.5,2.05-.75,3.42-1.25v2.73c-.34.15-.51.23-.85.38-3.35-.12-5.03-.17-8.38-.28v17.91c-.27.37-.41.56-.68.94-1.37-.04-2.05-.06-3.42-.11.62-1.02.92-1.53,1.54-2.55h-.01Z"/>
  <path d="M645.67,103.49v-41.57c-3.41-2.93-5.12-4.4-8.53-7.32-4.37-.31-6.56-.46-10.93-.76-8.81-.59-13.22-.87-22.04-1.4-4.37-.26-6.56-.39-10.94-.63-3.42,2.49-5.13,3.74-8.54,6.24v41.57c-1.5,1.12-2.26,1.69-3.76,2.81,1.51,1.34,2.26,2,3.76,3.34v41.57c3.42,2.86,5.13,4.29,8.54,7.16,4.38.24,6.56.37,10.94.63,8.82.53,13.22.81,22.04,1.4,4.37.29,6.56.45,10.93.76,3.41-2.44,5.12-3.65,8.53-6.08v-41.57c1.5-1.15,2.25-1.72,3.75-2.86-1.5-1.32-2.25-1.97-3.75-3.29ZM604.17,100.71v-29.67c1.5-1.11,2.26-1.67,3.76-2.78,5.81.35,8.71.54,14.52.92,1.5,1.3,2.25,1.95,3.76,3.26v29.67c-1.5,1.1-2.25,1.65-3.76,2.76,1.5,1.36,2.25,2.04,3.76,3.4v29.67c-1.5,1.1-2.25,1.65-3.76,2.76-5.81-.38-8.71-.57-14.52-.92-1.5-1.3-2.26-1.94-3.76-3.24v-29.67c1.5-1.17,2.26-1.75,3.76-2.92-1.5-1.3-2.26-1.94-3.76-3.24ZM632.52,105.56c-.89.65-1.33.97-2.22,1.62.89.77,1.33,1.16,2.22,1.93v32.27c-2.46,1.74-3.69,2.62-6.15,4.36-7.04-.47-10.55-.7-17.59-1.13-.82-.71-1.23-1.06-2.05-1.77,6.9.42,10.35.64,17.25,1.1,2.39-1.81,3.59-2.71,5.98-4.52v-32.27c-.89-.72-1.33-1.08-2.22-1.79.89-.65,1.33-.98,2.22-1.63v-32.27c-1.57-1.37-2.36-2.05-3.93-3.41.14,0,.2.01.34.02,2.46,2.08,3.69,3.12,6.15,5.21v32.27h0ZM597.17,56.82c-2.46,1.83-3.69,2.74-6.15,4.58v41.57c-.89.66-1.33.99-2.22,1.66.89.76,1.33,1.14,2.22,1.9v41.57c1.64,1.35,2.46,2.02,4.1,3.37-.14,0-.21,0-.34-.02-2.46-2.11-3.69-3.16-6.15-5.26v-41.57c-.89-.7-1.33-1.06-2.22-1.76.89-.66,1.33-1,2.22-1.66v-41.57c2.46-1.84,3.69-2.75,6.15-4.58,13.62.77,27.23,1.63,40.82,2.6.82.71,1.23,1.07,2.05,1.79-13.48-.96-26.98-1.83-40.48-2.61h0Z"/>
  <path d="M144.94,152.56c-10.49,1.03-20.98,2.11-31.45,3.26-14.93,1.66-29.84,3.41-44.74,5.24-3.61.45-5.41.68-9.02,1.14,3.61,5.53,5.41,8.3,9.02,13.85v97.58c-3.45,3.24-5.18,4.86-8.62,8.11,3.45,2.49,5.17,3.74,8.62,6.24v97.58c-3.61,6.45-5.41,9.67-9.02,16.13,3.61-.46,5.41-.69,9.02-1.14,14.9-1.83,29.81-3.58,44.74-5.24,3.46-.38,5.19-.56,8.65-.93-3.46-5.63-5.19-8.44-8.65-14.06v-79.4c3.46-3.31,5.19-4.96,8.65-8.27,10.53-1.12,15.8-1.65,26.35-2.68,7.55,2.2,11.33,3.31,18.89,5.56v-50.7c-7.56,3.49-11.34,5.25-18.89,8.79-10.54,1.02-15.81,1.56-26.35,2.68-3.46-2.44-5.19-3.66-8.65-6.08v-58.04c9.11-1,13.67-1.48,22.8-2.4,3.46,2.46,5.19,3.69,8.65,6.15v18.18c7.4-3.53,11.09-5.29,18.5-8.77,10.55-.97,15.83-1.43,26.39-2.3v-39.54c3.47-6.28,5.2-9.42,8.67-15.69-3.47.28-5.2.42-8.67.7-14.97,1.27-29.93,2.63-44.88,4.06h0ZM150.45,260.76c3.15-1.45,4.72-2.17,7.87-3.62v6.06c-.79.46-1.18.68-1.97,1.14-10.76,1.01-21.51,2.08-32.25,3.22-2.04-1.44-3.07-2.16-5.11-3.6,10.47-1.13,20.96-2.2,31.46-3.2h0ZM159.5,199c-2.36,1.11-3.54,1.67-5.9,2.79v-9.57c-3.46-2.6-5.2-3.9-8.66-6.5.16-.02.24-.02.39-.04,5.66,3.91,8.5,5.87,14.17,9.81v3.51ZM181.95,160.32c-34.29,3.01-68.48,6.54-102.61,10.6,1.57,2.36,2.35,3.54,3.92,5.91v102.04c-2.04,1.9-3.06,2.85-5.1,4.76,2.04,1.41,3.06,2.12,5.1,3.53v102.04c-.63.97-.94,1.45-1.57,2.42-3.14.38-4.71.57-7.84.95,1.41-2.6,2.12-3.9,3.53-6.49v-102.36c-1.88-1.43-2.82-2.14-4.71-3.57,1.88-1.76,2.82-2.64,4.71-4.4v-102.36c-1.41-2.38-2.12-3.57-3.53-5.94,36.73-4.43,73.54-8.25,110.46-11.47-.95,1.74-1.42,2.61-2.36,4.35h0Z"/>
  <path d="M215.44,265.14c3.47,2.55,5.21,3.83,8.68,6.39v73.34c7.73,5.7,11.6,8.56,19.33,14.32,10.26-.66,15.39-.97,25.66-1.54,11.21-.62,16.82-.91,28.04-1.42,10.27-.47,15.41-.69,25.68-1.07,7.75-6.54,11.62-9.8,19.37-16.28v-73.34c3.48-2.91,5.22-4.37,8.7-7.27-3.48-2.71-5.22-4.06-8.7-6.76v-74.62c3.64-6.11,5.46-9.16,9.09-15.25-3.64.1-5.46.15-9.09.26-15.03.49-30.04,1.07-45.06,1.73-3.63.17-5.45.25-9.09.43,3.63,5.82,5.45,8.73,9.09,14.55v74.62c-3.48,2.97-5.21,4.45-8.69,7.43,3.48,2.64,5.21,3.96,8.69,6.6v45.6c-3.48,2.97-5.21,4.45-8.69,7.43-4.27.21-6.4.32-10.66.54-3.48-2.62-5.21-3.93-8.69-6.55v-45.6c3.48-3,5.21-4.5,8.69-7.49-3.48-2.62-5.21-3.93-8.69-6.55v-74.62c3.48-6.19,5.21-9.28,8.69-15.46-3.48.18-5.21.28-8.69.47-15.01.87-30,1.81-44.99,2.85-3.63.26-5.44.39-9.07.66,3.63,5.73,5.44,8.59,9.07,14.33v74.62c-3.47,3.05-5.21,4.58-8.68,7.64h.01ZM292.01,327.44c5.69-4.86,8.53-7.29,14.22-12.13v-51.34c-2.05-1.57-3.08-2.35-5.14-3.92,2.05-1.75,3.08-2.62,5.14-4.37v-79.08c-1.58-2.36-2.37-3.53-3.95-5.89,11.59-.49,23.18-.93,34.78-1.33-.95,1.56-1.42,2.34-2.37,3.91-10.59.35-15.89.55-26.48,1,1.42,2.49,2.13,3.74,3.56,6.23v79.08c-2.05,1.74-3.08,2.61-5.14,4.36,2.05,1.44,3.08,2.16,5.14,3.61v51.66c-5.53,4.69-8.3,7.04-13.83,11.76-7.27.33-10.91.51-18.17.89-2.05-1.42-3.08-2.13-5.13-3.55,6.95-.37,10.43-.55,17.38-.88h0ZM229.24,174.86c11.44-.8,22.89-1.52,34.33-2.18-.95,1.59-1.42,2.38-2.37,3.96-10.58.62-15.87.95-26.44,1.66,1.58,2.44,2.37,3.67,3.95,6.11v79.08c-2.05,1.79-3.08,2.69-5.13,4.49,2.05,1.39,3.08,2.09,5.13,3.48v73.34c3.63,2.69,5.44,4.04,9.08,6.75-.16.01-.24.01-.39.03-5.84-4.22-8.76-6.33-14.6-10.52v-73.02c-1.89-1.53-2.84-2.29-4.73-3.82,1.89-1.79,2.84-2.68,4.73-4.47v-79.08c-1.42-2.33-2.13-3.49-3.55-5.82h0Z"/>
  <path d="M479.43,215.4v-39.54c3.64-5.94,5.46-8.9,9.1-14.83-3.64-.07-5.46-.1-9.1-.16-15.03-.21-30.06-.33-45.09-.37-6.8,0-10.21,0-17.01.04-15.03.11-30.06.3-45.09.58-3.64.07-5.46.11-9.1.2,3.64,5.91,5.46,8.87,9.1,14.79v74.62c-3.48,2.88-5.22,4.32-8.7,7.21,3.48,2.72,5.22,4.09,8.7,6.82v73.98c-3.64,6.07-5.46,9.11-9.1,15.19,3.64-.09,5.46-.13,9.1-.2,15.03-.28,30.05-.47,45.09-.58,6.8-.04,10.21-.04,17.01-.04,15.03.04,30.06.16,45.09.37,3.64.06,5.46.09,9.1.16-3.64-6.06-5.46-9.09-9.1-15.15v-40.82c-15.03-.21-30.06-.33-45.09-.37v12.44c-3.48,2.8-5.22,4.21-8.7,7.02-3.32,0-4.98.01-8.31.03v-34.44c3.48-2.82,5.22-4.23,8.7-7.05,4.9-.01,7.36-.01,12.26,0,7.44,2.95,11.16,4.43,18.59,7.43v-51.02c-7.44,2.87-11.15,4.32-18.59,7.24h-12.26c-3.48-2.8-5.22-4.2-8.7-6.98v-35.08c3.32-.02,4.98-.02,8.31-.03,3.48,2.8,5.22,4.2,8.7,7.01v11.16c15.03.04,30.06.16,45.09.37h0ZM440.28,246.29c3.17-1.27,4.75-1.9,7.91-3.16v6.38c-.95.25-1.43.38-2.37.63-7.12-.03-10.68-.04-17.8-.03-2.06-1.53-3.09-2.29-5.14-3.82,6.96-.02,10.44-.02,17.4,0ZM448.98,207.74c-2.22,0-3.32-.02-5.54-.03v-6.7c-3.64-2.95-5.46-4.42-9.1-7.35h.79c5.54,4.47,8.31,6.71,13.84,11.21v2.87h.01ZM429.2,324.09c5.7-4.6,8.54-6.89,14.24-11.46v-7.97c10.76.04,16.14.08,26.9.22v3.83c-8.54-.11-12.82-.15-21.36-.2v8.29c-5.54,4.43-8.31,6.66-13.84,11.12-8.54,0-12.82,0-21.36.06v-3.83c6.17-.04,9.26-.05,15.43-.06h0ZM382.93,172.08c1.58,2.52,2.37,3.79,3.95,6.31v79.08c-2.06,1.69-3.08,2.54-5.14,4.23,2.06,1.5,3.08,2.24,5.14,3.74v78.45c-.63.9-.95,1.35-1.58,2.26-3.16.05-4.75.08-7.91.14,1.42-2.45,2.14-3.67,3.56-6.12v-78.45c-1.9-1.63-2.85-2.44-4.75-4.06,1.9-1.69,2.85-2.54,4.75-4.23v-79.08c-1.42-2.4-2.14-3.6-3.56-5.99,32.31-.53,64.59-.6,96.9-.22-.95,1.52-1.42,2.28-2.37,3.79-29.67-.33-59.33-.28-89,.16h0Z"/>
  <path d="M581.01,234.08c7.58-2.42,11.37-3.62,18.96-6,10.42.59,15.63.91,26.05,1.6v-47.83c3.63-5.76,5.45-8.63,9.07-14.37-3.63-.25-5.44-.37-9.07-.61-15-.96-29.99-1.83-45.01-2.62-24.1-1.16-48.2-2.08-72.32-2.76-3.64-.09-5.46-.14-9.1-.22,3.64,6.08,5.46,9.12,9.1,15.21v74.62c-3.48,2.72-5.22,4.08-8.7,6.8,3.48,2.89,5.22,4.33,8.7,7.23v73.98c-3.64,5.9-5.46,8.85-9.1,14.77,3.64.08,5.46.13,9.1.22,15.03.42,30.04.92,45.06,1.51,10.91.45,16.36.7,27.26,1.25,15.01.79,30.01,1.66,45.01,2.62,3.63.24,5.45.36,9.07.61-3.63-6.25-5.44-9.37-9.07-15.6v-99.17c-19.6-1.25-39.2-2.34-58.83-3.28v36.35c2.05.09,3.08.14,5.14.24,3.48,2.97,5.21,4.46,8.69,7.44v27.42c-3.48,2.63-5.21,3.95-8.69,6.59-7.43-.35-11.14-.52-18.57-.82v-119.9c7.43.31,11.14.47,18.57.82,3.48,2.97,5.21,4.46,8.69,7.44v26.47h-.01ZM595.62,221.46c-2.21.77-3.32,1.16-5.53,1.93v-18.18c-3.63-3.13-5.45-4.69-9.08-7.81.32.02.47.02.79.04,5.53,4.75,8.29,7.12,13.82,11.9v12.12h0ZM575.88,327.58c5.69-4.32,8.53-6.47,14.22-10.75v-33.16c-5.53-4.76-8.29-7.13-13.82-11.87v-22c13.7.67,27.38,1.43,41.06,2.29v3.83c-11.84-.72-23.68-1.39-35.53-2.02v22.32c5.53,4.62,8.29,6.93,13.82,11.58v33.48c-5.53,4.16-8.29,6.24-13.82,10.43-10.53-.54-21.07-1.02-31.61-1.43v-3.83c10.27.41,15.41.64,25.68,1.14h0ZM519.37,172.94c1.58,2.6,2.37,3.9,3.95,6.5v79.08c-2.06,1.59-3.08,2.39-5.14,3.99,2.06,1.59,3.08,2.39,5.14,3.98v78.45c-.63.87-.95,1.31-1.58,2.18-3.16-.1-4.74-.14-7.91-.23,1.42-2.38,2.14-3.58,3.56-5.96v-78.45c-1.9-1.71-2.85-2.57-4.75-4.28,1.9-1.61,2.85-2.41,4.75-4.01v-79.08c-1.42-2.46-2.13-3.7-3.56-6.16,35.73,1.07,71.4,2.7,107.06,4.91-.95,1.47-1.42,2.21-2.37,3.68-33.03-2.01-66.06-3.54-99.16-4.6h.01Z"/>
  <path d="M796.77,273.68v-96.94c-7.84-7.23-11.76-10.83-19.61-18.01-10.05-1.19-15.07-1.76-25.13-2.86-16.89-1.86-33.8-3.54-50.73-5.1-10.08-.92-15.12-1.37-25.2-2.2-7.88,5.6-11.82,8.41-19.71,14.06v96.94c-3.47,2.54-5.2,3.81-8.67,6.37,3.47,3.19,5.2,4.78,8.67,7.98v96.94c7.88,6.85,11.83,10.29,19.71,17.19,10.09.84,15.13,1.28,25.2,2.2,16.93,1.56,33.85,3.24,50.73,5.1,10.06,1.1,15.08,1.67,25.13,2.86,7.85-5.32,11.77-7.97,19.61-13.24v-96.94c3.45-2.5,5.17-3.75,8.62-6.24-3.45-3.25-5.17-4.87-8.62-8.11h0ZM701.3,263.33v-69.2c3.46-2.49,5.2-3.73,8.66-6.21,11.15,1.05,22.3,2.17,33.43,3.36,3.46,3.17,5.19,4.76,8.64,7.95v69.2c-3.46,2.43-5.19,3.64-8.64,6.08,3.46,3.3,5.19,4.96,8.64,8.27v69.2c-3.46,2.43-5.19,3.64-8.64,6.08-11.13-1.19-22.28-2.31-33.43-3.36-3.46-3.13-5.19-4.7-8.66-7.82v-69.2c3.46-2.62,5.2-3.92,8.66-6.53-3.46-3.13-5.19-4.7-8.66-7.82ZM766.56,277.08c-2.04,1.42-3.06,2.14-5.11,3.57,2.04,1.89,3.06,2.83,5.11,4.73v75.26c-5.65,3.82-8.48,5.73-14.14,9.58-13.49-1.48-26.99-2.86-40.5-4.15-1.89-1.71-2.83-2.57-4.72-4.27,13.25,1.24,26.49,2.58,39.72,4,5.5-4,8.25-5.99,13.75-9.97v-75.26c-2.04-1.76-3.06-2.64-5.11-4.4,2.04-1.43,3.06-2.15,5.11-3.57v-75.26c-3.61-3.34-5.42-5.01-9.04-8.34.31.03.47.05.79.09,5.66,5.08,8.48,7.63,14.14,12.75v75.26-.02ZM685.15,160.49c-5.67,4.1-8.51,6.16-14.18,10.29v96.94c-2.05,1.49-3.07,2.24-5.12,3.73,2.05,1.82,3.07,2.73,5.12,4.56v96.94c3.78,3.24,5.67,4.86,9.46,8.12-.32-.03-.47-.04-.79-.07-5.67-5.07-8.51-7.6-14.18-12.64v-96.94c-2.05-1.69-3.07-2.54-5.12-4.23,2.05-1.5,3.08-2.25,5.12-3.74v-96.94c5.67-4.14,8.51-6.21,14.18-10.32,31.4,2.72,62.72,5.87,93.99,9.45,1.88,1.75,2.83,2.63,4.71,4.38-31-3.6-62.05-6.78-93.18-9.54h-.01Z"/>
  <path d="M441.6,367.74l-9.04-6.57-8.96,6.52c-119.21.12-196.93,6.58-197.72,6.64l-5,8.97c.79-.07,83.76-6.55,203.22-6.62l8.46,6.16,8.41-6.12c66.6.28,138.33,2.49,203.27,6.59l-5.25-8.98c-64.9-4.1-131.27-6.3-197.4-6.58h.01Z"/>
  <path d="M805.39,120.68c-45.12-7.78-86.29-13.25-140.34-17.9l-8.67,10.1c53.75,4.63,95.57,9.53,140.39,17.26l8.62-9.45h0Z"/>
  <path d="M59.64,120.68l8.62,9.45c44.82-7.73,86.64-12.63,140.39-17.26l-8.67-10.1c-54.05,4.65-95.22,10.12-140.34,17.9h0Z"/>
</svg>
